<svg xmlns="http://www.w3.org/2000/svg" width="512" height="512" viewBox="0 0 1024 1024">
  <!-- For light mode: Cream background with darker aqua columns -->
  <rect x="64" y="64" width="896" height="896" rx="180" ry="180" fill="#d5c4a1"/>

  <!-- Three board columns -->
  <rect x="180" y="200" width="200" height="624" rx="24" ry="24" fill="#689d6a"/>
  <rect x="200" y="240" width="160" height="80" rx="12" ry="12" fill="#fbf1c7"/>
  <rect x="200" y="340" width="160" height="80" rx="12" ry="12" fill="#fbf1c7" opacity="0.8"/>
  <rect x="200" y="440" width="160" height="80" rx="12" ry="12" fill="#fbf1c7" opacity="0.5"/>

  <rect x="412" y="200" width="200" height="624" rx="24" ry="24" fill="#689d6a"/>
  <rect x="432" y="240" width="160" height="100" rx="12" ry="12" fill="#fabd2f"/>
  <rect x="432" y="360" width="160" height="100" rx="12" ry="12" fill="#fabd2f" opacity="0.7"/>

  <rect x="644" y="200" width="200" height="624" rx="24" ry="24" fill="#689d6a"/>
  <rect x="664" y="240" width="160" height="80" rx="12" ry="12" fill="#b8bb26"/>
  <path d="M710 270 L735 295 L780 250" stroke="#689d6a" stroke-width="12" stroke-linecap="round" stroke-linejoin="round" fill="none"/>
  <rect x="664" y="340" width="160" height="80" rx="12" ry="12" fill="#b8bb26"/>
  <path d="M710 370 L735 395 L780 350" stroke="#689d6a" stroke-width="12" stroke-linecap="round" stroke-linejoin="round" fill="none"/>
  <rect x="664" y="440" width="160" height="80" rx="12" ry="12" fill="#b8bb26"/>
  <path d="M710 470 L735 495 L780 450" stroke="#689d6a" stroke-width="12" stroke-linecap="round" stroke-linejoin="round" fill="none"/>
  <rect x="664" y="540" width="160" height="80" rx="12" ry="12" fill="#b8bb26" opacity="0.7"/>
  <path d="M710 570 L735 595 L780 550" stroke="#689d6a" stroke-width="12" stroke-linecap="round" stroke-linejoin="round" fill="none" opacity="0.7"/>
</svg>
